<svg xmlns="http://www.w3.org/2000/svg" xmlns:xlink="http://www.w3.org/1999/xlink" width="1000" zoomAndPan="magnify" viewBox="0 0 750 374.999991" height="500" preserveAspectRatio="xMidYMid meet" version="1.0"><defs><filter x="0%" y="0%" width="100%" height="100%" id="57b2f0d15b"><feColorMatrix values="0 0 0 0 1 0 0 0 0 1 0 0 0 0 1 0 0 0 1 0" color-interpolation-filters="sRGB"/></filter><g/><clipPath id="90f9f9eb6f"><path d="M 21 61.035156 L 175.667969 61.035156 L 175.667969 255.625 L 21 255.625 Z M 21 61.035156 " clip-rule="nonzero"/></clipPath><mask id="1898774ff5"><g filter="url(#57b2f0d15b)"><rect x="-75" width="900" fill="#000000" y="-37.499999" height="449.999989" fill-opacity="0.6863"/></g></mask><clipPath id="41cebeea37"><rect x="0" width="565" y="0" height="54"/></clipPath></defs><g clip-path="url(#90f9f9eb6f)"><path fill="#810000" d="M 98.644531 255.625 C 78.113281 255.625 58.695312 247.425781 43.96875 232.535156 C 36.894531 225.386719 31.332031 217.113281 27.429688 207.949219 C 23.394531 198.46875 21.347656 188.5 21.347656 178.328125 C 21.347656 156.683594 32.410156 132.480469 47.210938 132.480469 C 48.835938 132.480469 50.386719 133.175781 51.464844 134.390625 C 52.546875 135.601562 53.0625 137.222656 52.871094 138.839844 C 51.820312 148.003906 52.203125 164.847656 57.703125 171.015625 C 59.109375 172.597656 60.699219 173.300781 62.859375 173.300781 C 64.746094 173.300781 65.445312 172.929688 65.53125 172.828125 C 65.558594 172.800781 66.144531 172.0625 66.019531 168.835938 C 65.898438 165.828125 65.234375 161.996094 64.464844 157.5625 C 63.265625 150.683594 61.910156 142.882812 61.910156 134.4375 C 61.910156 133.628906 61.882812 132.539062 61.84375 131.277344 C 61.515625 119.898438 60.742188 93.253906 77.375 76.136719 C 87.105469 66.117188 101.105469 61.035156 118.984375 61.035156 C 121.019531 61.035156 122.902344 62.121094 123.921875 63.882812 C 124.941406 65.644531 124.945312 67.8125 123.929688 69.578125 C 123.230469 70.816406 106.941406 100.644531 141.675781 121.773438 C 155.453125 130.15625 175.945312 152.132812 175.945312 178.328125 C 175.945312 198.855469 167.90625 218.222656 153.308594 232.863281 C 138.671875 247.542969 119.261719 255.625 98.644531 255.625 Z M 41 148.960938 C 40.148438 150.179688 39.28125 151.625 38.4375 153.308594 C 34.824219 160.519531 32.75 169.640625 32.75 178.328125 C 32.75 214.046875 62.925781 244.222656 98.644531 244.222656 C 134.980469 244.222656 164.542969 214.664062 164.542969 178.328125 C 164.542969 156.984375 146.882812 138.289062 135.75 131.515625 C 112.738281 117.515625 108.011719 99.851562 108.101562 87.496094 C 108.140625 81.890625 109.164062 76.878906 110.351562 72.9375 C 99.828125 74.214844 91.511719 77.945312 85.550781 84.082031 C 72.28125 97.742188 72.929688 120.167969 73.242188 130.945312 C 73.28125 132.296875 73.3125 133.460938 73.3125 134.433594 C 73.3125 141.898438 74.582031 149.183594 75.695312 155.609375 C 77.535156 166.1875 78.988281 174.542969 74.257812 180.167969 C 71.726562 183.175781 67.890625 184.703125 62.859375 184.703125 C 57.46875 184.703125 52.742188 182.589844 49.183594 178.59375 C 42.585938 171.1875 41.097656 158.367188 41 148.960938 Z M 41 148.960938 " fill-opacity="1" fill-rule="nonzero"/></g><g fill="#eeebdd" fill-opacity="1"><g transform="translate(169.081507, 186.4229)"><g><path d="M 64 -62.125 L 41.375 -62.125 L 41.375 0 L 24.59375 0 L 24.59375 -62.125 L 1.96875 -62.125 L 1.96875 -75.734375 L 64 -75.734375 Z M 64 -62.125 "/></g></g></g><g fill="#eeebdd" fill-opacity="1"><g transform="translate(235.596051, 186.4229)"><g><path d="M 23.046875 -76.828125 L 23.046875 -58.0625 C 23.046875 -54.332031 22.71875 -50.566406 22.0625 -46.765625 C 29.601562 -52.691406 36.992188 -55.65625 44.234375 -55.65625 C 49.140625 -55.65625 52.890625 -54.375 55.484375 -51.8125 C 58.085938 -49.25 59.390625 -45.515625 59.390625 -40.609375 L 59.390625 0 L 43.25 0 L 43.25 -35.5625 C 43.25 -37.976562 42.863281 -39.644531 42.09375 -40.5625 C 41.320312 -41.476562 39.953125 -41.9375 37.984375 -41.9375 C 34.097656 -41.9375 29.082031 -40.285156 22.9375 -36.984375 L 22.9375 0 L 6.703125 0 L 6.703125 -76.828125 Z M 23.046875 -76.828125 "/></g></g></g><g fill="#eeebdd" fill-opacity="1"><g transform="translate(301.891057, 186.4229)"><g><path d="M 41.15625 -21.625 L 21.625 -21.625 C 22.132812 -17.675781 23.320312 -15.023438 25.1875 -13.671875 C 27.050781 -12.316406 30.144531 -11.640625 34.46875 -11.640625 C 40.25 -11.640625 46.976562 -12.039062 54.65625 -12.84375 L 56.203125 -2.75 C 50.566406 -0.0390625 42.695312 1.3125 32.59375 1.3125 C 22.425781 1.3125 15.179688 -0.878906 10.859375 -5.265625 C 6.546875 -9.660156 4.390625 -16.90625 4.390625 -27 C 4.390625 -37.613281 6.492188 -45.039062 10.703125 -49.28125 C 14.910156 -53.53125 21.988281 -55.65625 31.9375 -55.65625 C 40.9375 -55.65625 47.445312 -54.097656 51.46875 -50.984375 C 55.5 -47.878906 57.550781 -43.140625 57.625 -36.765625 C 57.625 -31.722656 56.320312 -27.9375 53.71875 -25.40625 C 51.125 -22.882812 46.9375 -21.625 41.15625 -21.625 Z M 21.296875 -31.390625 L 36.65625 -31.390625 C 38.632812 -31.390625 39.96875 -31.863281 40.65625 -32.8125 C 41.351562 -33.769531 41.703125 -35.160156 41.703125 -36.984375 C 41.703125 -39.546875 41.046875 -41.320312 39.734375 -42.3125 C 38.421875 -43.300781 36.003906 -43.796875 32.484375 -43.796875 C 28.316406 -43.796875 25.460938 -42.972656 23.921875 -41.328125 C 22.390625 -39.679688 21.515625 -36.367188 21.296875 -31.390625 Z M 21.296875 -31.390625 "/></g></g></g><g fill="#eeebdd" fill-opacity="1"><g transform="translate(363.905429, 186.4229)"><g><path d="M 45.546875 -55.65625 L 43.90625 -40.609375 L 39.515625 -40.609375 C 35.929688 -40.609375 30.40625 -39.363281 22.9375 -36.875 L 22.9375 0 L 6.703125 0 L 6.703125 -54.109375 L 19.3125 -54.109375 L 20.75 -46.21875 C 28.132812 -52.507812 35.453125 -55.65625 42.703125 -55.65625 Z M 45.546875 -55.65625 "/></g></g></g><g fill="#eeebdd" fill-opacity="1"><g transform="translate(411.102236, 186.4229)"><g><path d="M 19.640625 -54.109375 L 20.75 -46.21875 C 27.625 -52.507812 34.5 -55.65625 41.375 -55.65625 C 48.695312 -55.65625 53.347656 -52.726562 55.328125 -46.875 C 61.691406 -52.726562 68.273438 -55.65625 75.078125 -55.65625 C 79.984375 -55.65625 83.71875 -54.375 86.28125 -51.8125 C 88.84375 -49.25 90.125 -45.515625 90.125 -40.609375 L 90.125 0 L 73.984375 0 L 73.984375 -35.5625 C 73.984375 -37.90625 73.578125 -39.550781 72.765625 -40.5 C 71.960938 -41.457031 70.46875 -41.9375 68.28125 -41.9375 C 66.519531 -41.9375 64.832031 -41.601562 63.21875 -40.9375 C 61.613281 -40.28125 59.273438 -39 56.203125 -37.09375 L 56.203125 0 L 40.609375 0 L 40.609375 -35.5625 C 40.609375 -37.90625 40.148438 -39.550781 39.234375 -40.5 C 38.328125 -41.457031 36.847656 -41.9375 34.796875 -41.9375 C 31.941406 -41.9375 27.953125 -40.359375 22.828125 -37.203125 L 22.828125 0 L 6.703125 0 L 6.703125 -54.109375 Z M 19.640625 -54.109375 "/></g></g></g><g fill="#eeebdd" fill-opacity="1"><g transform="translate(508.020272, 186.4229)"><g><path d="M 8.125 -42.046875 L 6.578125 -53.015625 C 16.316406 -54.773438 25.722656 -55.65625 34.796875 -55.65625 C 42.109375 -55.65625 47.484375 -54.171875 50.921875 -51.203125 C 54.367188 -48.242188 56.09375 -43.101562 56.09375 -35.78125 L 56.09375 0 L 43.25 0 L 41.59375 -8.234375 C 36.1875 -1.867188 29.53125 1.3125 21.625 1.3125 C 16.425781 1.3125 12.179688 -0.0546875 8.890625 -2.796875 C 5.597656 -5.546875 3.953125 -9.367188 3.953125 -14.265625 L 3.953125 -19.75 C 3.953125 -24.070312 5.414062 -27.441406 8.34375 -29.859375 C 11.269531 -32.273438 15.332031 -33.484375 20.53125 -33.484375 L 39.84375 -33.484375 L 39.84375 -35.890625 C 39.769531 -38.671875 39.128906 -40.535156 37.921875 -41.484375 C 36.710938 -42.441406 34.390625 -42.921875 30.953125 -42.921875 C 24.953125 -42.921875 17.34375 -42.628906 8.125 -42.046875 Z M 19.984375 -18.546875 L 19.984375 -16.46875 C 19.984375 -12.726562 22.101562 -10.859375 26.34375 -10.859375 C 30.726562 -10.859375 35.226562 -12.617188 39.84375 -16.140625 L 39.84375 -23.703125 L 25.25 -23.703125 C 21.738281 -23.628906 19.984375 -21.910156 19.984375 -18.546875 Z M 19.984375 -18.546875 "/></g></g></g><g fill="#eeebdd" fill-opacity="1"><g transform="translate(570.802967, 186.4229)"><g><path d="M 22.9375 -76.828125 L 22.9375 -17.671875 C 22.9375 -14.015625 24.988281 -12.1875 29.09375 -12.1875 L 33.484375 -12.1875 L 35.34375 -0.875 C 32.5625 0.582031 28.242188 1.3125 22.390625 1.3125 C 17.554688 1.3125 13.75 0.015625 10.96875 -2.578125 C 8.195312 -5.171875 6.8125 -8.847656 6.8125 -13.609375 L 6.8125 -76.828125 Z M 22.9375 -76.828125 "/></g></g></g><g mask="url(#1898774ff5)"><g transform="matrix(1, 0, 0, 1, 185, 209)"><g clip-path="url(#41cebeea37)"><g fill="#fffcee" fill-opacity="1"><g transform="translate(1.440075, 42.385523)"><g><path d="M 31.109375 0 L 26.546875 0 C 26.023438 0 25.597656 -0.125 25.265625 -0.375 C 24.941406 -0.632812 24.707031 -0.957031 24.5625 -1.34375 L 22.1875 -7.8125 L 9.046875 -7.8125 L 6.671875 -1.34375 C 6.554688 -1 6.328125 -0.6875 5.984375 -0.40625 C 5.640625 -0.132812 5.21875 0 4.71875 0 L 0.125 0 L 12.59375 -31.75 L 18.640625 -31.75 Z M 10.5625 -11.984375 L 20.6875 -11.984375 L 16.8125 -22.546875 C 16.632812 -23.015625 16.441406 -23.566406 16.234375 -24.203125 C 16.023438 -24.835938 15.816406 -25.53125 15.609375 -26.28125 C 15.398438 -25.53125 15.195312 -24.832031 15 -24.1875 C 14.800781 -23.539062 14.609375 -22.976562 14.421875 -22.5 Z M 10.5625 -11.984375 "/></g></g></g><g fill="#fffcee" fill-opacity="1"><g transform="translate(54.562381, 42.385523)"><g><path d="M 33.65625 -15.875 C 33.65625 -14.457031 33.507812 -13.097656 33.21875 -11.796875 C 32.925781 -10.503906 32.503906 -9.289062 31.953125 -8.15625 C 31.398438 -7.03125 30.726562 -5.992188 29.9375 -5.046875 C 29.15625 -4.109375 28.257812 -3.28125 27.25 -2.5625 L 35.296875 6.21875 L 30.421875 6.21875 C 29.722656 6.21875 29.09375 6.117188 28.53125 5.921875 C 27.96875 5.734375 27.453125 5.382812 26.984375 4.875 L 22.328125 -0.265625 C 21.578125 -0.0546875 20.8125 0.09375 20.03125 0.1875 C 19.25 0.289062 18.429688 0.34375 17.578125 0.34375 C 15.179688 0.34375 12.988281 -0.0546875 11 -0.859375 C 9.019531 -1.671875 7.320312 -2.800781 5.90625 -4.25 C 4.5 -5.707031 3.40625 -7.425781 2.625 -9.40625 C 1.851562 -11.382812 1.46875 -13.539062 1.46875 -15.875 C 1.46875 -18.195312 1.851562 -20.347656 2.625 -22.328125 C 3.40625 -24.316406 4.5 -26.035156 5.90625 -27.484375 C 7.320312 -28.929688 9.019531 -30.0625 11 -30.875 C 12.988281 -31.6875 15.179688 -32.09375 17.578125 -32.09375 C 19.984375 -32.09375 22.171875 -31.679688 24.140625 -30.859375 C 26.117188 -30.046875 27.8125 -28.914062 29.21875 -27.46875 C 30.625 -26.03125 31.710938 -24.316406 32.484375 -22.328125 C 33.265625 -20.347656 33.65625 -18.195312 33.65625 -15.875 Z M 27.59375 -15.875 C 27.59375 -17.613281 27.363281 -19.175781 26.90625 -20.5625 C 26.445312 -21.945312 25.785156 -23.117188 24.921875 -24.078125 C 24.054688 -25.046875 23.003906 -25.785156 21.765625 -26.296875 C 20.523438 -26.804688 19.128906 -27.0625 17.578125 -27.0625 C 16.023438 -27.0625 14.628906 -26.804688 13.390625 -26.296875 C 12.148438 -25.785156 11.09375 -25.046875 10.21875 -24.078125 C 9.34375 -23.117188 8.671875 -21.945312 8.203125 -20.5625 C 7.742188 -19.175781 7.515625 -17.613281 7.515625 -15.875 C 7.515625 -14.132812 7.742188 -12.570312 8.203125 -11.1875 C 8.671875 -9.800781 9.34375 -8.628906 10.21875 -7.671875 C 11.09375 -6.710938 12.148438 -5.976562 13.390625 -5.46875 C 14.628906 -4.957031 16.023438 -4.703125 17.578125 -4.703125 C 19.128906 -4.703125 20.523438 -4.957031 21.765625 -5.46875 C 23.003906 -5.976562 24.054688 -6.710938 24.921875 -7.671875 C 25.785156 -8.628906 26.445312 -9.800781 26.90625 -11.1875 C 27.363281 -12.570312 27.59375 -14.132812 27.59375 -15.875 Z M 27.59375 -15.875 "/></g></g></g><g fill="#fffcee" fill-opacity="1"><g transform="translate(111.613716, 42.385523)"><g><path d="M 15.984375 -4.765625 C 17.117188 -4.765625 18.132812 -4.953125 19.03125 -5.328125 C 19.9375 -5.710938 20.703125 -6.25 21.328125 -6.9375 C 21.953125 -7.625 22.425781 -8.457031 22.75 -9.4375 C 23.082031 -10.414062 23.25 -11.515625 23.25 -12.734375 L 23.25 -31.75 L 29.15625 -31.75 L 29.15625 -12.734375 C 29.15625 -10.847656 28.847656 -9.101562 28.234375 -7.5 C 27.628906 -5.894531 26.753906 -4.507812 25.609375 -3.34375 C 24.472656 -2.1875 23.09375 -1.28125 21.46875 -0.625 C 19.84375 0.0195312 18.015625 0.34375 15.984375 0.34375 C 13.953125 0.34375 12.125 0.0195312 10.5 -0.625 C 8.875 -1.28125 7.492188 -2.1875 6.359375 -3.34375 C 5.222656 -4.507812 4.347656 -5.894531 3.734375 -7.5 C 3.128906 -9.101562 2.828125 -10.847656 2.828125 -12.734375 L 2.828125 -31.75 L 8.734375 -31.75 L 8.734375 -12.75 C 8.734375 -11.539062 8.894531 -10.441406 9.21875 -9.453125 C 9.550781 -8.472656 10.023438 -7.632812 10.640625 -6.9375 C 11.253906 -6.25 12.007812 -5.710938 12.90625 -5.328125 C 13.8125 -4.953125 14.835938 -4.765625 15.984375 -4.765625 Z M 15.984375 -4.765625 "/></g></g></g><g fill="#fffcee" fill-opacity="1"><g transform="translate(165.526236, 42.385523)"><g><path d="M 23.21875 -31.75 L 23.21875 -27.046875 L 9.15625 -27.046875 L 9.15625 -18.25 L 20.234375 -18.25 L 20.234375 -13.703125 L 9.15625 -13.703125 L 9.15625 -4.71875 L 23.21875 -4.71875 L 23.21875 0 L 3.203125 0 L 3.203125 -31.75 Z M 23.21875 -31.75 "/></g></g></g><g fill="#fffcee" fill-opacity="1"><g transform="translate(212.612349, 42.385523)"><g><path d="M 25.03125 -7.484375 C 25.351562 -7.484375 25.628906 -7.359375 25.859375 -7.109375 L 28.1875 -4.59375 C 26.894531 -2.988281 25.304688 -1.765625 23.421875 -0.921875 C 21.546875 -0.078125 19.289062 0.34375 16.65625 0.34375 C 14.300781 0.34375 12.179688 -0.0546875 10.296875 -0.859375 C 8.421875 -1.660156 6.816406 -2.773438 5.484375 -4.203125 C 4.148438 -5.640625 3.128906 -7.351562 2.421875 -9.34375 C 1.710938 -11.34375 1.359375 -13.519531 1.359375 -15.875 C 1.359375 -18.257812 1.753906 -20.441406 2.546875 -22.421875 C 3.335938 -24.410156 4.445312 -26.117188 5.875 -27.546875 C 7.3125 -28.984375 9.03125 -30.097656 11.03125 -30.890625 C 13.03125 -31.691406 15.238281 -32.09375 17.65625 -32.09375 C 20.007812 -32.09375 22.066406 -31.710938 23.828125 -30.953125 C 25.585938 -30.203125 27.097656 -29.207031 28.359375 -27.96875 L 26.390625 -25.21875 C 26.273438 -25.039062 26.125 -24.882812 25.9375 -24.75 C 25.75 -24.625 25.5 -24.5625 25.1875 -24.5625 C 24.84375 -24.5625 24.492188 -24.691406 24.140625 -24.953125 C 23.796875 -25.222656 23.351562 -25.507812 22.8125 -25.8125 C 22.269531 -26.125 21.582031 -26.410156 20.75 -26.671875 C 19.925781 -26.929688 18.878906 -27.0625 17.609375 -27.0625 C 16.109375 -27.0625 14.734375 -26.800781 13.484375 -26.28125 C 12.234375 -25.769531 11.15625 -25.03125 10.25 -24.0625 C 9.351562 -23.09375 8.648438 -21.914062 8.140625 -20.53125 C 7.640625 -19.15625 7.390625 -17.601562 7.390625 -15.875 C 7.390625 -14.082031 7.640625 -12.488281 8.140625 -11.09375 C 8.648438 -9.707031 9.335938 -8.539062 10.203125 -7.59375 C 11.066406 -6.644531 12.082031 -5.914062 13.25 -5.40625 C 14.425781 -4.90625 15.6875 -4.65625 17.03125 -4.65625 C 17.84375 -4.65625 18.570312 -4.695312 19.21875 -4.78125 C 19.875 -4.875 20.472656 -5.015625 21.015625 -5.203125 C 21.566406 -5.390625 22.085938 -5.632812 22.578125 -5.9375 C 23.066406 -6.238281 23.550781 -6.609375 24.03125 -7.046875 C 24.1875 -7.179688 24.34375 -7.285156 24.5 -7.359375 C 24.65625 -7.441406 24.832031 -7.484375 25.03125 -7.484375 Z M 25.03125 -7.484375 "/></g></g></g><g fill="#fffcee" fill-opacity="1"><g transform="translate(264.000617, 42.385523)"><g><path d="M 9.859375 0 L 3.921875 0 L 3.921875 -31.75 L 9.859375 -31.75 Z M 9.859375 0 "/></g></g></g><g fill="#fffcee" fill-opacity="1"><g transform="translate(299.738679, 42.385523)"><g><path d="M 19.140625 -13.171875 C 19.390625 -12.703125 19.617188 -12.210938 19.828125 -11.703125 C 20.046875 -11.203125 20.253906 -10.695312 20.453125 -10.1875 C 20.660156 -10.707031 20.875 -11.222656 21.09375 -11.734375 C 21.3125 -12.253906 21.546875 -12.75 21.796875 -13.21875 L 31.203125 -30.796875 C 31.316406 -31.015625 31.4375 -31.191406 31.5625 -31.328125 C 31.6875 -31.460938 31.820312 -31.554688 31.96875 -31.609375 C 32.125 -31.671875 32.296875 -31.707031 32.484375 -31.71875 C 32.679688 -31.738281 32.910156 -31.75 33.171875 -31.75 L 37.625 -31.75 L 37.625 0 L 32.421875 0 L 32.421875 -20.5 C 32.421875 -20.882812 32.429688 -21.300781 32.453125 -21.75 C 32.472656 -22.207031 32.507812 -22.671875 32.5625 -23.140625 L 22.96875 -5.140625 C 22.75 -4.722656 22.460938 -4.398438 22.109375 -4.171875 C 21.753906 -3.953125 21.34375 -3.84375 20.875 -3.84375 L 20.0625 -3.84375 C 19.59375 -3.84375 19.179688 -3.953125 18.828125 -4.171875 C 18.484375 -4.398438 18.203125 -4.722656 17.984375 -5.140625 L 8.25 -23.203125 C 8.3125 -22.722656 8.351562 -22.25 8.375 -21.78125 C 8.394531 -21.320312 8.40625 -20.894531 8.40625 -20.5 L 8.40625 0 L 3.203125 0 L 3.203125 -31.75 L 7.65625 -31.75 C 7.925781 -31.75 8.15625 -31.738281 8.34375 -31.71875 C 8.53125 -31.707031 8.703125 -31.671875 8.859375 -31.609375 C 9.015625 -31.554688 9.15625 -31.460938 9.28125 -31.328125 C 9.414062 -31.191406 9.539062 -31.015625 9.65625 -30.796875 Z M 19.140625 -13.171875 "/></g></g></g><g fill="#fffcee" fill-opacity="1"><g transform="translate(362.51893, 42.385523)"><g><path d="M 23.21875 -31.75 L 23.21875 -27.046875 L 9.15625 -27.046875 L 9.15625 -18.25 L 20.234375 -18.25 L 20.234375 -13.703125 L 9.15625 -13.703125 L 9.15625 -4.71875 L 23.21875 -4.71875 L 23.21875 0 L 3.203125 0 L 3.203125 -31.75 Z M 23.21875 -31.75 "/></g></g></g><g fill="#fffcee" fill-opacity="1"><g transform="translate(409.605033, 42.385523)"><g><path d="M 6.296875 -31.75 C 6.566406 -31.75 6.785156 -31.734375 6.953125 -31.703125 C 7.128906 -31.679688 7.285156 -31.640625 7.421875 -31.578125 C 7.566406 -31.515625 7.703125 -31.421875 7.828125 -31.296875 C 7.960938 -31.171875 8.113281 -31.003906 8.28125 -30.796875 L 24.9375 -9.578125 C 24.875 -10.085938 24.832031 -10.585938 24.8125 -11.078125 C 24.789062 -11.566406 24.78125 -12.023438 24.78125 -12.453125 L 24.78125 -31.75 L 29.984375 -31.75 L 29.984375 0 L 26.9375 0 C 26.46875 0 26.078125 -0.0703125 25.765625 -0.21875 C 25.460938 -0.363281 25.164062 -0.628906 24.875 -1.015625 L 8.28125 -22.15625 C 8.320312 -21.6875 8.351562 -21.21875 8.375 -20.75 C 8.394531 -20.289062 8.40625 -19.875 8.40625 -19.5 L 8.40625 0 L 3.203125 0 L 3.203125 -31.75 Z M 6.296875 -31.75 "/></g></g></g><g fill="#fffcee" fill-opacity="1"><g transform="translate(464.746714, 42.385523)"><g><path d="M 25.578125 -31.75 L 25.578125 -26.890625 L 16.03125 -26.890625 L 16.03125 0 L 10.125 0 L 10.125 -26.890625 L 0.53125 -26.890625 L 0.53125 -31.75 Z M 25.578125 -31.75 "/></g></g></g><g fill="#fffcee" fill-opacity="1"><g transform="translate(512.820549, 42.385523)"><g><path d="M 33.65625 -15.875 C 33.65625 -13.539062 33.265625 -11.382812 32.484375 -9.40625 C 31.710938 -7.425781 30.625 -5.707031 29.21875 -4.25 C 27.8125 -2.800781 26.117188 -1.671875 24.140625 -0.859375 C 22.171875 -0.0546875 19.984375 0.34375 17.578125 0.34375 C 15.179688 0.34375 12.988281 -0.0546875 11 -0.859375 C 9.019531 -1.671875 7.320312 -2.800781 5.90625 -4.25 C 4.5 -5.707031 3.40625 -7.425781 2.625 -9.40625 C 1.851562 -11.382812 1.46875 -13.539062 1.46875 -15.875 C 1.46875 -18.195312 1.851562 -20.347656 2.625 -22.328125 C 3.40625 -24.316406 4.5 -26.035156 5.90625 -27.484375 C 7.320312 -28.929688 9.019531 -30.0625 11 -30.875 C 12.988281 -31.6875 15.179688 -32.09375 17.578125 -32.09375 C 19.984375 -32.09375 22.171875 -31.679688 24.140625 -30.859375 C 26.117188 -30.046875 27.8125 -28.914062 29.21875 -27.46875 C 30.625 -26.03125 31.710938 -24.316406 32.484375 -22.328125 C 33.265625 -20.347656 33.65625 -18.195312 33.65625 -15.875 Z M 27.59375 -15.875 C 27.59375 -17.613281 27.363281 -19.175781 26.90625 -20.5625 C 26.445312 -21.945312 25.785156 -23.117188 24.921875 -24.078125 C 24.054688 -25.046875 23.003906 -25.785156 21.765625 -26.296875 C 20.523438 -26.804688 19.128906 -27.0625 17.578125 -27.0625 C 16.023438 -27.0625 14.628906 -26.804688 13.390625 -26.296875 C 12.148438 -25.785156 11.09375 -25.046875 10.21875 -24.078125 C 9.34375 -23.117188 8.671875 -21.945312 8.203125 -20.5625 C 7.742188 -19.175781 7.515625 -17.613281 7.515625 -15.875 C 7.515625 -14.132812 7.742188 -12.570312 8.203125 -11.1875 C 8.671875 -9.800781 9.34375 -8.628906 10.21875 -7.671875 C 11.09375 -6.710938 12.148438 -5.976562 13.390625 -5.46875 C 14.628906 -4.957031 16.023438 -4.703125 17.578125 -4.703125 C 19.128906 -4.703125 20.523438 -4.957031 21.765625 -5.46875 C 23.003906 -5.976562 24.054688 -6.710938 24.921875 -7.671875 C 25.785156 -8.628906 26.445312 -9.800781 26.90625 -11.1875 C 27.363281 -12.570312 27.59375 -14.132812 27.59375 -15.875 Z M 27.59375 -15.875 "/></g></g></g></g></g></g></svg>